<svg xmlns="http://www.w3.org/2000/svg" width="84" height="27" fill="none"><g fill="#151515"><path d="M8.8525 19.42c-1.1083 0-2.1758-.1283-3.2025-.385-1.0267-.2567-1.9454-.6358-2.7563-1.1375-.8108-.5017-1.4525-1.1287-1.925-1.8812C.4962 15.2638.26 14.3858.26 13.3825V13.0675h5.39v.245c0 .6767.3004 1.1725.9012 1.4875.6009.315 1.4146.4725 2.4413.4725.5367 0 1.0529-.0554 1.5487-.1662.4959-.1109.9042-.2917 1.225-.5425.3209-.2509.4813-.5688.4813-.9538 0-.6183-.3413-1.0558-1.0238-1.3125-.6825-.2567-1.7762-.5133-3.2812-.77-.8517-.14-1.715-.3383-2.59-.595-.875-.2567-1.68-.5979-2.415-1.0237-.735-.4259-1.3242-.9684-1.7675-1.6275C.7267 7.622.505 6.82.505 5.875c0-1.26.382-2.3217 1.1462-3.185.7642-.8633 1.7821-1.5167 3.0538-1.96C5.9767.2867 7.3767.065 8.905.065c1.4583 0 2.8175.242 4.0775.7263 1.26.4841 2.2808 1.1783 3.0625 2.0824.7817.9042 1.1725 1.9921 1.1725 3.2638v.245H11.88v-.21c0-.4667-.1488-.8458-.4463-1.1375-.2975-.2917-.6737-.5104-1.1287-.6563C9.85 4.233 9.3775 4.16 8.8875 4.16c-.4433 0-.9013.0496-1.3738.1487-.4725.0992-.872.2626-1.1987.49-.3267.2275-.49.5455-.49.9538 0 .3967.175.7204.525.9712.35.2509.84.455 1.47.6125.63.1576 1.3592.3063 2.1875.4463.7817.1283 1.6071.3062 2.4762.5338.8692.2274 1.6859.5483 2.45.9625.7642.4141 1.3825.9566 1.855 1.6275.4725.6708.7088 1.5195.7088 2.5462 0 1.0617-.245 1.9717-.735 2.73s-1.1521 1.3738-1.9863 1.8463c-.8341.4725-1.7616.8225-2.7825 1.05-1.0208.2275-2.0679.3412-3.1412.3412Z"/><path fill-rule="evenodd" d="M33.4789 11.1075V19h5.4075V7.3625c0-1.4583-.2421-2.733-.7263-3.8237-.4841-1.0909-1.2191-1.9426-2.205-2.555C34.9693.3713 33.7122.065 32.1839.065c-1.4583 0-2.7854.3442-3.9813 1.0325-.954.5492-1.7503 1.2654-2.3887 2.1487V.415h-5.425V19h5.425V9.27c0-.8983.1633-1.6917.49-2.38.3267-.6883.7962-1.225 1.4087-1.61s1.3388-.5775 2.1788-.5775c.9683 0 1.7092.1925 2.2225.5775.5133.385.8692.8954 1.0675 1.5313.1983.6358.2975 1.3387.2975 2.1087v2.1875ZM25.8139 9.27V3.2462a8.1624 8.1624 0 0 0-.455.7038c-.7 1.2133-1.05 2.625-1.05 4.235l1.505 1.085ZM45.164 18.7375c1.0559.4317 2.2604.6475 3.6138.6475 1.155 0 2.2312-.1487 3.2287-.4462s1.8609-.7234 2.59-1.2775a5.4863 5.4863 0 0 0 .697-.6273c.0484.1893.1048.378.1693.566.1166.3383.2596.6358.4287.8925.1692.2567.2946.4258.3763.5075h5.3375c-.1167-.105-.2625-.2917-.4375-.56-.175-.2683-.3209-.6067-.4375-1.015-.105-.3617-.1721-.7612-.2013-1.1987a20.7232 20.7232 0 0 1-.0437-1.3738V6.82c0-1.5283-.4229-2.7883-1.2688-3.78-.8458-.9917-1.9629-1.7354-3.3512-2.2312C54.4769.3129 52.9661.065 51.3328.065c-1.75 0-3.3192.2654-4.7075.7963-1.3884.5308-2.4879 1.3095-3.2988 2.3362-.8108 1.0267-1.2162 2.2867-1.2162 3.78h5.3375c0-.9217.3296-1.607.9887-2.0563.6592-.4491 1.6129-.6737 2.8613-.6737 1.1783 0 2.0971.1983 2.7562.595.6592.3967.9888.9392.9888 1.6275v.035c0 .4083-.3879.6942-1.1638.8575-.7758.1633-2.1846.3442-4.2262.5425-1.4.14-2.6979.4287-3.8938.8662-1.1958.4375-2.1554 1.0705-2.8787 1.8988-.7234.8283-1.085 1.9017-1.085 3.22 0 1.1667.2975 2.1583.8925 2.975s1.4204 1.4408 2.4762 1.8725Zm7.455-3.8762c-.7408.3091-1.5371.4637-2.3887.4637-.9917 0-1.7384-.1604-2.24-.4812-.5017-.3209-.7525-.8021-.7525-1.4438 0-.6767.2946-1.1579.8837-1.4437.5892-.2859 1.4788-.4871 2.6688-.6038a41.758 41.758 0 0 0 3.0187-.4287 19.4553 19.4553 0 0 0 1.3213-.2822v.1509c0 1.0733-.2334 1.9425-.7 2.6075-.4667.665-1.0704 1.1521-1.8113 1.4613Zm2.5113-4.2197c.4838-.122.933-.2584 1.3475-.4091L55.1303 8.92v1.7216ZM71.1117 18.2388c1.225.7875 2.5725 1.1812 4.0425 1.1812 1.54 0 2.9633-.3704 4.27-1.1112 1.3066-.7409 2.3566-1.8405 3.15-3.2988.7933-1.4583 1.19-3.255 1.19-5.39 0-2.0417-.4055-3.7742-1.2163-5.1975-.8108-1.4233-1.8696-2.5054-3.1762-3.2463C78.065.4355 76.6592.065 75.1542.065c-1.47 0-2.8175.3733-4.0425 1.12-.6308.3845-1.1967.8409-1.6975 1.3692V.415h-5.4425v26.2325h5.4425v-9.8434a8.4855 8.4855 0 0 0 1.6975 1.4347Zm-1.6975-8.0238-2.345.0525v.28c0 1.6683.3675 3.1704 1.1025 4.5063.3565.6479.7707 1.2314 1.2425 1.7503V10.425c0 .8633.21 1.6188.63 2.2663.42.6475.9625 1.1462 1.6275 1.4962.665.35 1.3591.525 2.0825.525 1.19 0 2.2254-.4112 3.1062-1.2337.8808-.8225 1.3213-2.1088 1.3213-3.8588s-.4375-3.0246-1.3125-3.8237c-.875-.7992-1.9134-1.1988-3.115-1.1988-.7234 0-1.4175.172-2.0825.5162s-1.2075.8313-1.6275 1.4613c-.42.63-.63 1.3825-.63 2.2575V2.5542c-.4718.4977-.886 1.0592-1.2425 1.6845-.735 1.2892-1.1025 2.7738-1.1025 4.4538l2.345.14v1.3825Z" clip-rule="evenodd"/></g></svg>